HIERARCHY
ROOT RootJoint
{
    OFFSET   0.000000   0.000000   0.000000
    CHANNELS 6 Xposition Yposition Zposition Xrotation Yrotation Zrotation
    JOINT pelvis_lowerback
    {
        OFFSET   0.000000   0.093605   0.000000
        CHANNELS 3 Xrotation Yrotation Zrotation
        JOINT lowerback_torso
        {
            OFFSET   0.000000   0.100000   0.000000
            CHANNELS 3 Xrotation Yrotation Zrotation
            JOINT torso_head
            {
                OFFSET   0.000000   0.282350   0.000000
                CHANNELS 3 Xrotation Yrotation Zrotation
                End Site
                {
                    OFFSET   0.000000   0.192650   0.000000
                }
            }
            JOINT rTorso_Clavicle
            {
                OFFSET  -0.001000   0.157500   0.000000
                CHANNELS 3 Xrotation Yrotation Zrotation
                JOINT rShoulder
                {
                    OFFSET  -0.117647   0.000000   0.000000
                    CHANNELS 3 Xrotation Yrotation Zrotation
                    JOINT rElbow
                    {
                        OFFSET  -0.245000   0.000000   0.000000
                        CHANNELS 3 Xrotation Yrotation Zrotation
                        JOINT rWrist
                        {
                            OFFSET  -0.240000   0.000000   0.000000
                            CHANNELS 3 Xrotation Yrotation Zrotation
                            End Site
                            {
                                OFFSET  -0.116353  -0.002500   0.000000
                            }
                        }
                    }
                }
            }
            JOINT lTorso_Clavicle
            {
                OFFSET   0.001000   0.157500   0.000000
                CHANNELS 3 Xrotation Yrotation Zrotation
                JOINT lShoulder
                {
                    OFFSET   0.117647   0.000000   0.000000
                    CHANNELS 3 Xrotation Yrotation Zrotation
                    JOINT lElbow
                    {
                        OFFSET   0.245000   0.000000   0.000000
                        CHANNELS 3 Xrotation Yrotation Zrotation
                        JOINT lWrist
                        {
                            OFFSET   0.240000   0.000000   0.000000
                            CHANNELS 3 Xrotation Yrotation Zrotation
                            End Site
                            {
                                OFFSET   0.116353  -0.002500   0.000000
                            }
                        }
                    }
                }
            }
        }
    }
    JOINT rHip
    {
        OFFSET  -0.100000  -0.051395   0.000000
        CHANNELS 3 Xrotation Yrotation Zrotation
        JOINT rKnee
        {
            OFFSET   0.000000  -0.410000   0.000000
            CHANNELS 3 Xrotation Yrotation Zrotation
            JOINT rAnkle
            {
                OFFSET   0.000000  -0.390000   0.000000
                CHANNELS 3 Xrotation Yrotation Zrotation
                JOINT rToeJoint
                {
                    OFFSET   0.000000  -0.050000   0.130000
                    CHANNELS 3 Xrotation Yrotation Zrotation
                    End Site
                    {
                        OFFSET  -0.010000   0.002000   0.060000
                    }
                }
            }
        }
    }
    JOINT lHip
    {
        OFFSET   0.100000  -0.051395   0.000000
        CHANNELS 3 Xrotation Yrotation Zrotation
        JOINT lKnee
        {
            OFFSET   0.000000  -0.410000   0.000000
            CHANNELS 3 Xrotation Yrotation Zrotation
            JOINT lAnkle
            {
                OFFSET   0.000000  -0.390000   0.000000
                CHANNELS 3 Xrotation Yrotation Zrotation
                JOINT lToeJoint
                {
                    OFFSET   0.000000  -0.050000   0.130000
                    CHANNELS 3 Xrotation Yrotation Zrotation
                    End Site
                    {
                        OFFSET   0.010000   0.002000   0.060000
                    }
                }
            }
        }
    }
}
MOTION
Frames: 12
Frame Time:   0.008333
 -2.376719   0.925631   3.975860   0.000000   0.000000   0.000000   0.000000   0.000000   0.000000   0.000000   0.000000   0.000000   0.000000   0.000000   0.000000   0.000000   0.000000   0.000000   0.000000   0.000000   0.000000   0.000000   0.000000   0.000000   0.000000   0.000000   0.000000   0.000000   0.000000   0.000000   0.000000   0.000000   0.000000   0.000000   0.000000   0.000000   0.000000   0.000000   0.000000   0.000000   0.000000   0.000000   0.000000   0.000000   0.000000   0.000000   0.000000   0.000000   0.000000   0.000000   0.000000   0.000000   0.000000   0.000000   0.000000   0.000000   0.000000   0.000000   0.000000   0.000000   0.000000   0.000000   0.000000
 -2.375793   0.923888   3.975064  -1.623155  -0.372189   0.299871   2.337302   0.519110  -0.035417  -0.363610  -0.197313  -0.283474   0.233820  -0.093466   0.098943  -0.642981  -0.128845  -0.609612  -1.550304   0.146715  -0.254108  -0.027950   3.450727   0.056360  -0.026486  -2.072281   1.053346  -0.904056   0.378638   0.797082  -1.300384   0.012377   0.217485  -0.027330  -2.949974  -0.048417  -0.083355   1.214017  -1.014578   0.951846  -0.134451  -0.602590   2.984656   0.007303  -0.013303  -3.761822  -0.604418   0.395859   0.089284  -0.000074  -0.000851   0.481901   0.575012  -0.353280   3.489295   0.001783   0.006185  -0.657097  -0.307986  -0.071070  -0.085216  -0.000094   0.000076
 -2.374805   0.924341   3.973842  -3.671621  -0.940079   0.291707   4.846554   1.146906   0.174130  -0.416109  -0.277670  -0.435285   0.539582  -0.187045   0.195932  -1.252836   0.056243  -1.335894  -3.000732   0.567427  -0.655239  -0.062613   7.073414   0.099035  -0.105218  -3.070845   1.822030  -1.763734   0.550440   1.683015  -2.518284  -0.154771   0.570130  -0.061520  -5.837269  -0.081860  -0.230484   1.484615  -1.779884   1.731220  -0.398094  -0.818869   5.877371   0.008154  -0.032378  -7.333853  -1.327739   0.892802   0.231991  -0.000458  -0.002586   0.908250   1.180125  -0.389068   6.944754   0.003040   0.005862  -1.798233  -0.537320  -0.054846  -1.654041  -0.000531   0.002690
 -2.373295   0.924142   3.973126  -5.832207  -1.514723   0.566049   7.181561   1.767003   0.135062  -0.367854  -0.306176  -0.633803   0.855264  -0.275963   0.287072  -1.805421   0.435182  -2.287266  -4.341755   1.131875  -1.174929  -0.107164  10.763876   0.136932  -0.183771  -3.529348   2.436939  -2.556362   0.553506   2.849014  -3.645433  -0.434682   1.091578  -0.102089  -8.581356  -0.107987  -0.380021   1.350124  -2.339254   2.731648  -0.604543  -1.543545   9.201883   0.012517  -0.050036 -10.899758  -1.971492   1.196127   0.200274  -0.000389  -0.001687   1.268254   1.725460  -0.736036  10.779867   0.004712   0.003356  -2.642984  -0.779082  -0.071156  -3.878014  -0.002533   0.007291
 -2.371547   0.923274   3.972980  -7.937133  -2.152542   0.836631   9.275100   2.416789   0.110732  -0.353024  -0.268460  -0.808363   1.142008  -0.358258   0.366489  -2.308585   0.943238  -3.368853  -5.585351   1.790830  -1.786402  -0.154895  14.498517   0.173249  -0.261102  -3.668661   2.788250  -3.288815   0.455101   4.138927  -4.692175  -0.778745   1.717155  -0.142039 -11.171131  -0.129074  -0.528420   1.014394  -2.617234   3.859353  -0.796162  -2.445240  12.659786   0.017847  -0.067822 -14.218587  -2.580450   1.423539   0.184401  -0.000353  -0.001158   1.593645   2.204737  -1.084531  14.713871   0.004729  -0.003165  -3.353809  -1.050480  -0.108986  -6.288069  -0.005154   0.014530
 -2.369711   0.921796   3.973302  -9.928233  -2.818036   1.039653  11.141217   3.087052   0.127487  -0.400971  -0.171568  -0.924615   1.389503  -0.435097   0.444621  -2.764530   1.545182  -4.502464  -6.739053   2.520062  -2.432910  -0.197927  18.094297   0.204707  -0.343425  -3.532329   2.935087  -3.965481   0.288728   5.485245  -5.665564  -1.161981   2.397827  -0.177447 -13.606878  -0.145069  -0.674324   0.567730  -2.669297   5.042246  -0.995839  -3.415830  16.172665   0.022360  -0.085096 -17.310924  -3.162836   1.602376   0.185777  -0.000278  -0.000943   1.881627   2.639696  -1.378313  18.454100   0.003294  -0.010423  -3.968118  -1.324310  -0.162881  -8.099723  -0.007080   0.019182
 -2.367865   0.919737   3.973984 -11.797061  -3.459664   1.167999  12.815417   3.761899   0.181908  -0.501325  -0.032726  -0.978331   1.600434  -0.506987   0.523315  -3.174521   2.202654  -5.636755  -7.808729   3.287066  -3.076367  -0.232622  21.478885   0.229523  -0.429493  -3.215315   2.948982  -4.589949   0.077440   6.850205  -6.571231  -1.567901   3.104565  -0.206422 -15.893055  -0.155767  -0.815383   0.058686  -2.552010   6.253986  -1.205733  -4.415069  19.721431   0.025619  -0.100415 -20.194649  -3.716286   1.738574   0.195625  -0.000173  -0.000872   2.107689   3.041391  -1.611073  21.957310   0.001325  -0.016036  -4.500376  -1.588552  -0.226085  -9.380700  -0.008033   0.020632
 -2.366290   0.917126   3.973943 -12.483293  -3.800101   1.407969  13.287361   4.154923   0.028927  -0.830998   0.018136  -0.843886   1.854595  -0.660186   0.630517  -3.435795   2.722283  -6.730032  -8.499651   4.281355  -3.141752  -0.252132  25.199177   0.248236  -0.550725  -3.048747   2.370950  -4.840275   0.026434   8.092821  -7.430906  -1.821873   3.438219  -0.230424 -18.589723  -0.167290  -0.982848  -0.302719  -1.619770   6.209154  -1.699083  -5.560364  23.363145   0.028659  -0.116126 -22.030563  -4.316392   1.757318   0.343300   0.000978  -0.002599   0.949081   3.581492  -1.662172  24.752332  -0.001048  -0.007801  -5.610785  -1.363182  -0.532789  -8.556415  -0.005062   0.019871
 -2.364922   0.913955   3.973730 -13.080338  -3.984201   1.653477  13.741271   4.492813  -0.133198  -1.200003   0.048776  -0.706714   2.054009  -0.812404   0.734484  -3.649104   3.264468  -7.635580  -9.131606   5.255379  -3.089835  -0.258949  28.706293   0.258462  -0.682126  -2.670048   1.962459  -5.059239  -0.060815   9.155741  -8.226546  -2.088282   3.664105  -0.240384 -21.128683  -0.171395  -1.147132  -0.802881  -0.767526   6.198176  -2.165699  -6.767989  26.969210   0.032511  -0.125113 -23.734038  -4.880358   1.752861   0.554100   0.002549  -0.004466  -0.384820   4.096432  -1.539910  27.152179  -0.003722   0.001889  -6.661905  -1.136359  -0.813385  -7.829903  -0.003735   0.019728
 -2.363747   0.910167   3.973457 -13.653259  -4.078581   1.890662  14.193429   4.820948  -0.288367  -1.529726   0.087769  -0.577343   2.229849  -0.954725   0.830994  -3.825959   3.808316  -8.406305  -9.716018   6.185238  -2.973752  -0.257696  31.989981   0.261542  -0.815941  -2.231916   1.693253  -5.252783  -0.167056  10.079205  -8.964428  -2.353135   3.818254  -0.240651 -23.505604  -0.169230  -1.302992  -1.335093  -0.043219   6.313534  -2.601554  -8.010525  30.399684   0.036121  -0.129236 -25.323269  -5.406623   1.729872   0.750318   0.003805  -0.005580  -1.815176   4.565475  -1.276812  29.298452  -0.006304   0.010643  -7.646325  -0.916525  -1.070157  -7.171840  -0.003284   0.019555
 -2.362751   0.905721   3.973157 -14.206387  -4.128716   2.116197  14.643373   5.155377  -0.438622  -1.814312   0.149194  -0.457757   2.392032  -1.086593   0.921104  -3.972573   4.342527  -9.078316 -10.258362   7.066729  -2.819800  -0.251453  35.061003   0.259266  -0.947631  -1.779961   1.516567  -5.426995  -0.270144  10.894182  -9.649765  -2.601759   3.923730  -0.234386 -25.725505  -0.162552  -1.448158  -1.857008   0.579059   6.534968  -3.011222  -9.270489  33.645051   0.038852  -0.130639 -26.807633  -5.897118   1.692254   0.928067   0.004727  -0.006161  -3.312695   4.986235  -0.903825  31.237918  -0.008586   0.017646  -8.566643  -0.705032  -1.305035  -6.571649  -0.003294   0.019138
 -2.361926   0.900594   3.972861 -14.739198  -4.155851   2.329021  15.088697   5.499062  -0.586039  -2.058303   0.236641  -0.348659   2.544370  -1.208700   1.005768  -4.094327   4.860479  -9.675084 -10.763112   7.898940  -2.644319  -0.242223  37.931699   0.253185  -1.075420  -1.328993   1.400322  -5.587151  -0.358168  11.622451 -10.287476  -2.826354   3.996442  -0.223824 -27.795323  -0.152921  -1.582704  -2.347559   1.126670   6.839419  -3.399649 -10.531613  36.708688   0.040421  -0.130277 -28.194517  -6.353912   1.643110   1.088542   0.005349  -0.006383  -4.853527   5.357808  -0.446486  32.996237  -0.010440   0.022818  -9.426689  -0.502624  -1.519934  -6.023385  -0.003514   0.018457
